<svg width="20" height="20" viewBox="0 0 20 20" fill="none" xmlns="http://www.w3.org/2000/svg">
<path fill-rule="evenodd" clip-rule="evenodd" d="M13.635 7.66638C13.635 7.93755 13.741 8.19372 13.933 8.38584C14.317 8.77109 14.989 8.77109 15.374 8.38684L17.7 6.05835C17.893 5.86523 18 5.61006 18 5.33889C18 5.06571 17.894 4.81055 17.7 4.61643L15.374 2.28894C14.989 1.90369 14.319 1.90369 13.934 2.28894C13.741 2.48106 13.635 2.73622 13.635 3.0094C13.635 3.28057 13.741 3.53673 13.934 3.72886L14.523 4.31824H8.836C5.066 4.31824 2 7.3882 2 11.1596C2 14.932 5.066 18 8.836 18C12.182 18 15.088 15.5054 15.593 12.2003C15.595 12.1913 15.609 12.0852 15.609 12.0062C15.609 11.9321 15.611 11.6539 15.611 11.6539C15.611 11.0926 15.154 10.6353 14.593 10.6353C14.031 10.6353 13.574 11.0926 13.574 11.6539V11.8431H13.573C13.573 12.1623 13.457 12.5015 13.435 12.5715C12.807 14.5418 10.925 15.9617 8.836 15.9617C6.189 15.9617 4.036 13.8083 4.036 11.1596C4.036 8.51192 6.189 6.35654 8.836 6.35654H14.523L13.934 6.94592C13.741 7.13904 13.635 7.39421 13.635 7.66638Z" fill="#8C9196"/>
</svg>
